<?xml version="1.0" encoding="UTF-8"?>
<svg width="693px" height="242px" viewBox="0 0 693 242" version="1.1" xmlns="http://www.w3.org/2000/svg" xmlns:xlink="http://www.w3.org/1999/xlink">
    <title>logomarca</title>
    <defs>
        <polygon id="path-1" points="0 0 199.280177 0 199.280177 165.3659 0 165.3659"></polygon>
    </defs>
    <g id="logomarca" stroke="none" stroke-width="1" fill="none" fill-rule="evenodd">
        <g id="Group-43" transform="translate(-0.000000, -0.000000)">
            <polygon id="Fill-1" fill="#231F20" points="30.779 160.9932 30.779 179.9022 10.835 179.9022 10.835 160.9932 2.84217094e-14 160.9932 2.84217094e-14 210.2682 10.835 210.2682 10.835 189.0122 30.779 189.0122 30.779 210.2682 41.614 210.2682 41.614 160.9932"></polygon>
            <path d="M50.3789,210.268 L60.1789,210.268 L60.1789,174.588 L50.3789,174.588 L50.3789,210.268 Z M50.3789,169.067 L60.1789,169.067 L60.1789,160.993 L50.3789,160.993 L50.3789,169.067 Z" id="Fill-2" fill="#231F20"></path>
            <g id="Group-42" transform="translate(66.803100, 0.000000)">
                <path d="M21.395,201.0198 C22.453,200.4678 23.328,199.7328 24.017,198.8118 C24.708,197.8918 25.225,196.8448 25.57,195.6718 C25.916,194.4988 26.087,193.2678 26.087,191.9798 C26.087,190.5078 25.95,189.1158 25.673,187.8038 C25.398,186.4938 24.937,185.3318 24.293,184.3188 C23.649,183.3078 22.797,182.5018 21.74,181.9038 C20.681,181.3068 19.347,181.0068 17.737,181.0068 C16.357,181.0068 15.171,181.2828 14.183,181.8338 C13.193,182.3868 12.365,183.1348 11.699,184.0778 C11.031,185.0208 10.548,186.1028 10.249,187.3218 C9.95,188.5408 9.8,189.8178 9.8,191.1518 C9.8,192.4398 9.927,193.7168 10.18,194.9818 C10.432,196.2478 10.871,197.3858 11.492,198.3978 C12.113,199.4108 12.929,200.2388 13.942,200.8818 C14.953,201.5268 16.219,201.8478 17.737,201.8478 C19.118,201.8478 20.335,201.5728 21.395,201.0198 M34.818,212.8898 C34.426,214.7298 33.586,216.4448 32.298,218.0318 C31.01,219.6198 29.147,220.9648 26.708,222.0688 C24.27,223.1728 21.003,223.7248 16.909,223.7248 C15.16,223.7248 13.377,223.5058 11.56,223.0698 C9.743,222.6318 8.086,221.9538 6.591,221.0338 C5.096,220.1128 3.854,218.9288 2.865,217.4798 C1.875,216.0308 1.312,214.2928 1.174,212.2688 L10.905,212.2688 C11.364,214.1088 12.261,215.3858 13.596,216.0998 C14.93,216.8118 16.471,217.1688 18.22,217.1688 C20.981,217.1688 22.993,216.3408 24.259,214.6848 C25.524,213.0288 26.133,210.9338 26.087,208.4048 L26.087,203.7108 L25.95,203.7108 C24.891,205.5988 23.384,206.9898 21.429,207.8868 C19.473,208.7848 17.415,209.2328 15.252,209.2328 C12.583,209.2328 10.284,208.7608 8.351,207.8178 C6.419,206.8748 4.832,205.5868 3.589,203.9538 C2.347,202.3208 1.438,200.4108 0.864,198.2248 C0.288,196.0408 0,193.7288 0,191.2898 C0,188.9898 0.334,186.7688 1.001,184.6298 C1.668,182.4908 2.646,180.6048 3.935,178.9708 C5.222,177.3378 6.821,176.0378 8.731,175.0718 C10.639,174.1058 12.837,173.6228 15.322,173.6228 C17.668,173.6228 19.727,174.0598 21.499,174.9338 C23.269,175.8078 24.752,177.2808 25.95,179.3508 L26.087,179.3508 L26.087,174.5878 L35.405,174.5878 L35.405,207.9908 C35.405,209.4168 35.208,211.0498 34.818,212.8898" id="Fill-3" fill="#231F20"></path>
                <path d="M53.0708,160.9935 L53.0708,179.5575 L53.2778,179.5575 C54.5198,177.4875 56.1078,175.9805 58.0398,175.0375 C59.9718,174.0955 61.8578,173.6225 63.6988,173.6225 C66.3218,173.6225 68.4708,173.9795 70.1518,174.6915 C71.8308,175.4055 73.1538,176.3945 74.1198,177.6595 C75.0858,178.9265 75.7638,180.4665 76.1558,182.2835 C76.5468,184.1005 76.7428,186.1135 76.7428,188.3215 L76.7428,210.2675 L66.9428,210.2675 L66.9428,190.1165 C66.9428,187.1725 66.4818,184.9745 65.5618,183.5255 C64.6408,182.0765 63.0088,181.3515 60.6628,181.3515 C57.9938,181.3515 56.0608,182.1445 54.8648,183.7325 C53.6688,185.3195 53.0708,187.9315 53.0708,191.5655 L53.0708,210.2675 L43.2708,210.2675 L43.2708,160.9935 L53.0708,160.9935 Z" id="Fill-5" fill="#231F20"></path>
                <path d="M105.7613,182.9388 C104.5883,181.6518 102.8043,181.0068 100.4123,181.0068 C98.8483,181.0068 97.5493,181.2718 96.5143,181.7998 C95.4783,182.3298 94.6503,182.9858 94.0293,183.7668 C93.4073,184.5498 92.9703,185.3778 92.7183,186.2518 C92.4643,187.1258 92.3153,187.9078 92.2693,188.5978 L108.2113,188.5978 C107.7503,186.1138 106.9353,184.2278 105.7613,182.9388 M94.6853,201.7098 C96.1573,203.1368 98.2743,203.8498 101.0333,203.8498 C103.0113,203.8498 104.7143,203.3558 106.1413,202.3658 C107.5673,201.3768 108.4413,200.3308 108.7633,199.2258 L117.3903,199.2258 C116.0093,203.5038 113.8933,206.5648 111.0403,208.4048 C108.1883,210.2458 104.7373,211.1658 100.6893,211.1658 C97.8823,211.1658 95.3513,210.7158 93.0973,209.8198 C90.8433,208.9218 88.9333,207.6458 87.3693,205.9898 C85.8053,204.3328 84.5973,202.3548 83.7463,200.0538 C82.8943,197.7538 82.4693,195.2228 82.4693,192.4618 C82.4693,189.7948 82.9073,187.3108 83.7813,185.0088 C84.6553,182.7098 85.8973,180.7198 87.5073,179.0408 C89.1173,177.3608 91.0373,176.0378 93.2703,175.0718 C95.5013,174.1058 97.9743,173.6228 100.6893,173.6228 C103.7253,173.6228 106.3703,174.2098 108.6253,175.3818 C110.8793,176.5548 112.7323,178.1318 114.1813,180.1098 C115.6303,182.0878 116.6763,184.3428 117.3213,186.8728 C117.9643,189.4038 118.1953,192.0478 118.0113,194.8088 L92.2693,194.8088 C92.4073,197.9838 93.2113,200.2848 94.6853,201.7098" id="Fill-7" fill="#231F20"></path>
                <path d="M133.1236,174.5882 L133.1236,181.2142 L133.2626,181.2142 C133.7216,180.1092 134.3426,179.0862 135.1256,178.1432 C135.9066,177.2002 136.8046,176.3952 137.8166,175.7272 C138.8286,175.0612 139.9096,174.5432 141.0606,174.1742 C142.2096,173.8072 143.4066,173.6222 144.6486,173.6222 C145.2926,173.6222 146.0056,173.7372 146.7886,173.9672 L146.7886,183.0762 C146.3276,182.9852 145.7756,182.9042 145.1326,182.8352 C144.4866,182.7662 143.8656,182.7322 143.2696,182.7322 C141.4746,182.7322 139.9566,183.0312 138.7146,183.6292 C137.4726,184.2282 136.4716,185.0442 135.7126,186.0792 C134.9526,187.1142 134.4116,188.3212 134.0906,189.7022 C133.7686,191.0822 133.6066,192.5782 133.6066,194.1882 L133.6066,210.2682 L123.8076,210.2682 L123.8076,174.5882 L133.1236,174.5882 Z" id="Fill-9" fill="#231F20"></path>
                <path d="M173.1499,166.8597 C170.5279,166.8597 168.2609,167.3887 166.3519,168.4467 C164.4429,169.5057 162.8899,170.9207 161.6939,172.6907 C160.4969,174.4627 159.6119,176.4757 159.0369,178.7297 C158.4619,180.9837 158.1739,183.2837 158.1739,185.6307 C158.1739,187.9767 158.4619,190.2777 159.0369,192.5317 C159.6119,194.7867 160.4969,196.7997 161.6939,198.5707 C162.8899,200.3417 164.4429,201.7567 166.3519,202.8147 C168.2609,203.8737 170.5279,204.4017 173.1499,204.4017 C175.7729,204.4017 178.0389,203.8737 179.9479,202.8147 C181.8569,201.7567 183.4099,200.3417 184.6059,198.5707 C185.8019,196.7997 186.6869,194.7867 187.2629,192.5317 C187.8379,190.2777 188.1259,187.9767 188.1259,185.6307 C188.1259,183.2837 187.8379,180.9837 187.2629,178.7297 C186.6869,176.4757 185.8019,174.4627 184.6059,172.6907 C183.4099,170.9207 181.8569,169.5057 179.9479,168.4467 C178.0389,167.3887 175.7729,166.8597 173.1499,166.8597 M173.1499,159.8197 C176.8309,159.8197 180.1309,160.5097 183.0529,161.8897 C185.9739,163.2707 188.4469,165.1337 190.4719,167.4807 C192.4969,169.8267 194.0489,172.5647 195.1299,175.6927 C196.2119,178.8227 196.7529,182.1347 196.7529,185.6307 C196.7529,189.1737 196.2119,192.5087 195.1299,195.6367 C194.0489,198.7667 192.4969,201.5037 190.4719,203.8497 C188.4469,206.1967 185.9739,208.0487 183.0529,209.4057 C180.1309,210.7617 176.8309,211.4407 173.1499,211.4407 C169.4679,211.4407 166.1679,210.7617 163.2469,209.4057 C160.3249,208.0487 157.8519,206.1967 155.8279,203.8497 C153.8029,201.5037 152.2509,198.7667 151.1699,195.6367 C150.0879,192.5087 149.5469,189.1737 149.5469,185.6307 C149.5469,182.1347 150.0879,178.8227 151.1699,175.6927 C152.2509,172.5647 153.8029,169.8267 155.8279,167.4807 C157.8519,165.1337 160.3249,163.2707 163.2469,161.8897 C166.1679,160.5097 169.4679,159.8197 173.1499,159.8197" id="Fill-11" fill="#231F20"></path>
                <path d="M203.5152,174.5882 L210.9002,174.5882 L210.9002,181.4892 L211.0372,181.4892 C211.2672,180.5242 211.7162,179.5812 212.3832,178.6602 C213.0492,177.7402 213.8552,176.9012 214.7982,176.1412 C215.7422,175.3822 216.7882,174.7732 217.9392,174.3132 C219.0882,173.8532 220.2612,173.6222 221.4582,173.6222 C222.3782,173.6222 223.0112,173.6462 223.3562,173.6922 C223.7022,173.7372 224.0572,173.7842 224.4262,173.8292 L224.4262,181.4212 C223.8732,181.3292 223.3102,181.2482 222.7352,181.1792 C222.1602,181.1102 221.5962,181.0752 221.0442,181.0752 C219.7092,181.0752 218.4562,181.3412 217.2842,181.8692 C216.1102,182.3992 215.0852,183.1802 214.2122,184.2152 C213.3372,185.2512 212.6482,186.5272 212.1422,188.0462 C211.6352,189.5642 211.3822,191.3132 211.3822,193.2902 L211.3822,210.2682 L203.5152,210.2682 L203.5152,174.5882 Z" id="Fill-13" fill="#231F20"></path>
                <path d="M233.9497,192.8079 C233.9497,194.3259 234.1447,195.8219 234.5357,197.2929 C234.9267,198.7669 235.5247,200.0779 236.3307,201.2269 C237.1347,202.3779 238.1587,203.2969 239.4017,203.9879 C240.6437,204.6779 242.1157,205.0229 243.8177,205.0229 C245.5657,205.0229 247.0727,204.6559 248.3387,203.9179 C249.6027,203.1829 250.6377,202.2169 251.4437,201.0199 C252.2487,199.8249 252.8467,198.4789 253.2387,196.9829 C253.6287,195.4889 253.8247,193.9579 253.8247,192.3939 C253.8247,188.4369 252.9387,185.3549 251.1687,183.1459 C249.3957,180.9379 246.9927,179.8329 243.9567,179.8329 C242.1157,179.8329 240.5627,180.2129 239.2987,180.9719 C238.0317,181.7319 236.9967,182.7209 236.1917,183.9399 C235.3867,185.1599 234.8117,186.5389 234.4677,188.0799 C234.1217,189.6219 233.9497,191.1979 233.9497,192.8079 L233.9497,192.8079 Z M261.4167,210.2679 L253.9637,210.2679 L253.9637,205.4369 L253.8247,205.4369 C252.7657,207.5069 251.2247,208.9919 249.2007,209.8879 C247.1767,210.7859 245.0367,211.2339 242.7827,211.2339 C239.9757,211.2339 237.5257,210.7399 235.4327,209.7499 C233.3397,208.7609 231.6027,207.4149 230.2227,205.7129 C228.8427,204.0109 227.8067,201.9979 227.1167,199.6739 C226.4277,197.3519 226.0817,194.8559 226.0817,192.1869 C226.0817,188.9669 226.5187,186.1829 227.3927,183.8359 C228.2667,181.4899 229.4287,179.5579 230.8787,178.0389 C232.3277,176.5209 233.9837,175.4059 235.8467,174.6919 C237.7107,173.9799 239.6087,173.6219 241.5407,173.6219 C242.6447,173.6219 243.7717,173.7259 244.9227,173.9329 C246.0717,174.1399 247.1767,174.4739 248.2347,174.9339 C249.2927,175.3939 250.2707,175.9809 251.1687,176.6939 C252.0647,177.4079 252.8117,178.2459 253.4107,179.2119 L253.5497,179.2119 L253.5497,160.9939 L261.4167,160.9939 L261.4167,210.2679 Z" id="Fill-15" fill="#231F20"></path>
                <path d="M294.4732,189.2884 C294.3802,188.0464 294.1162,186.8504 293.6792,185.6994 C293.2422,184.5504 292.6442,183.5494 291.8852,182.6974 C291.1252,181.8464 290.2042,181.1564 289.1242,180.6274 C288.0422,180.0994 286.8352,179.8334 285.5012,179.8334 C284.1202,179.8334 282.8672,180.0754 281.7402,180.5584 C280.6122,181.0414 279.6462,181.7084 278.8412,182.5594 C278.0362,183.4114 277.3922,184.4114 276.9092,185.5614 C276.4262,186.7124 276.1612,187.9544 276.1162,189.2884 L294.4732,189.2884 Z M276.1162,194.4644 C276.1162,195.8444 276.3112,197.1794 276.7022,198.4674 C277.0922,199.7554 277.6792,200.8824 278.4612,201.8484 C279.2442,202.8144 280.2332,203.5854 281.4292,204.1604 C282.6252,204.7354 284.0522,205.0224 285.7082,205.0224 C288.0082,205.0224 289.8602,204.5284 291.2632,203.5394 C292.6662,202.5504 293.7132,201.0664 294.4042,199.0884 L301.8572,199.0884 C301.4432,201.0194 300.7292,202.7454 299.7172,204.2644 C298.7052,205.7824 297.4862,207.0594 296.0602,208.0944 C294.6332,209.1294 293.0352,209.9124 291.2632,210.4404 C289.4922,210.9694 287.6402,211.2334 285.7082,211.2334 C282.9012,211.2334 280.4162,210.7734 278.2542,209.8534 C276.0912,208.9344 274.2632,207.6454 272.7682,205.9894 C271.2732,204.3324 270.1462,202.3544 269.3862,200.0544 C268.6272,197.7544 268.2472,195.2234 268.2472,192.4624 C268.2472,189.9334 268.6502,187.5284 269.4552,185.2514 C270.2602,182.9734 271.4112,180.9724 272.9072,179.2474 C274.4012,177.5214 276.2072,176.1534 278.3242,175.1414 C280.4402,174.1294 282.8322,173.6224 285.5012,173.6224 C288.3072,173.6224 290.8262,174.2094 293.0582,175.3824 C295.2882,176.5554 297.1402,178.1084 298.6142,180.0404 C300.0852,181.9734 301.1552,184.1924 301.8232,186.7004 C302.4892,189.2084 302.6612,191.7964 302.3402,194.4644 L276.1162,194.4644 Z" id="Fill-17" fill="#231F20"></path>
                <path d="M308.3443,174.5882 L315.7293,174.5882 L315.7293,181.4892 L315.8663,181.4892 C316.0963,180.5242 316.5453,179.5812 317.2123,178.6602 C317.8783,177.7402 318.6843,176.9012 319.6273,176.1412 C320.5713,175.3822 321.6173,174.7732 322.7683,174.3132 C323.9173,173.8532 325.0903,173.6222 326.2873,173.6222 C327.2073,173.6222 327.8403,173.6462 328.1853,173.6922 C328.5313,173.7372 328.8863,173.7842 329.2553,173.8292 L329.2553,181.4212 C328.7023,181.3292 328.1393,181.2482 327.5643,181.1792 C326.9893,181.1102 326.4253,181.0752 325.8733,181.0752 C324.5383,181.0752 323.2853,181.3412 322.1133,181.8692 C320.9393,182.3992 319.9143,183.1802 319.0413,184.2152 C318.1663,185.2512 317.4773,186.5272 316.9713,188.0462 C316.4643,189.5642 316.2113,191.3132 316.2113,193.2902 L316.2113,210.2682 L308.3443,210.2682 L308.3443,174.5882 Z" id="Fill-19" fill="#231F20"></path>
                <path d="M366.8853,168.9433 C366.0653,167.7253 365.0933,166.7313 363.9683,165.9623 C361.3453,164.1673 357.9173,163.2713 353.6853,163.2713 C350.6943,163.2713 348.1173,163.8693 345.9553,165.0643 C343.7923,166.2623 342.0103,167.8713 340.6073,169.8963 C339.2033,171.9213 338.1683,174.2553 337.5013,176.9003 C336.8343,179.5473 336.5013,182.3413 336.5013,185.2853 C336.5013,188.0463 336.7873,190.7613 337.3633,193.4293 C337.9383,196.0983 338.8933,198.4793 340.2283,200.5713 C341.5623,202.6653 343.3563,204.3563 345.6113,205.6443 C347.8643,206.9333 350.6943,207.5763 354.0993,207.5763 C356.2153,207.5763 358.1473,207.2313 359.8963,206.5413 C361.6443,205.8513 363.1743,204.8973 364.4863,203.6773 C365.7973,202.4583 366.9013,201.0203 367.7983,199.3633 C368.6963,197.7073 369.3733,195.8913 369.8343,193.9113 L374.7343,193.9113 C374.1823,196.3053 373.3763,198.5703 372.3193,200.7093 C371.2593,202.8493 369.8683,204.7243 368.1433,206.3343 C366.4183,207.9453 364.3233,209.2223 361.8633,210.1643 C359.4023,211.1063 356.5153,211.5793 353.2013,211.5793 C349.3823,211.5793 346.1163,210.8773 343.4023,209.4743 C340.6873,208.0713 338.4683,206.1733 336.7423,203.7803 C335.0173,201.3893 333.7633,198.6163 332.9813,195.4653 C332.1983,192.3133 331.8083,188.9673 331.8083,185.4233 C331.8083,180.6863 332.3953,176.6583 333.5683,173.3463 C334.7413,170.0333 336.3633,167.3313 338.4333,165.2373 C340.5033,163.1453 342.9423,161.6263 345.7483,160.6833 C348.5543,159.7403 351.6143,159.2683 354.9273,159.2683 C357.4573,159.2683 359.8163,159.6023 362.0013,160.2693 C364.1863,160.9363 366.1183,161.9373 367.7983,163.2713 C369.0293,164.2493 370.0993,165.3943 371.0093,166.7053 M371.0093,166.7053 C371.3403,167.1833 371.6503,167.6833 371.9393,168.2053 C373.0193,170.1613 373.7683,172.4273 374.1823,175.0023 L369.3513,175.0023 C368.7993,172.5853 367.9773,170.5653 366.8853,168.9433" id="Fill-21" fill="#231F20"></path>
                <path d="M409.6538,192.3939 C409.6538,190.2779 409.4228,188.2989 408.9638,186.4579 C408.5028,184.6189 407.7908,183.0199 406.8238,181.6629 C405.8578,180.3059 404.6158,179.2369 403.0968,178.4539 C401.5788,177.6709 399.7158,177.2809 397.5078,177.2809 C395.3438,177.2809 393.4928,177.7059 391.9518,178.5569 C390.4098,179.4089 389.1568,180.5359 388.1908,181.9379 C387.2238,183.3419 386.5098,184.9529 386.0508,186.7689 C385.5908,188.5869 385.3608,190.4609 385.3608,192.3939 C385.3608,194.6019 385.6258,196.6379 386.1548,198.5009 C386.6828,200.3649 387.4538,201.9639 388.4668,203.2969 C389.4778,204.6319 390.7438,205.6669 392.2618,206.4039 C393.7808,207.1399 395.5288,207.5069 397.5078,207.5069 C399.6698,207.5069 401.5208,207.0819 403.0628,206.2309 C404.6038,205.3799 405.8578,204.2419 406.8238,202.8149 C407.7908,201.3889 408.5028,199.7779 408.9638,197.9839 C409.4228,196.1899 409.6538,194.3259 409.6538,192.3939 M397.5078,211.2339 C395.2068,211.1879 393.0558,210.7739 391.0538,209.9919 C389.0528,209.2099 387.3038,208.0369 385.8098,206.4719 C384.3138,204.9089 383.1298,202.9529 382.2558,200.6059 C381.3818,198.2599 380.9438,195.5229 380.9438,192.3939 C380.9438,189.7709 381.2898,187.3219 381.9788,185.0439 C382.6698,182.7659 383.7048,180.7769 385.0858,179.0749 C386.4658,177.3729 388.1908,176.0269 390.2608,175.0379 C392.3318,174.0479 394.7468,173.5529 397.5078,173.5529 C400.3128,173.5529 402.7528,174.0479 404.8228,175.0379 C406.8928,176.0269 408.6188,177.3609 409.9988,179.0399 C411.3788,180.7199 412.4018,182.7089 413.0698,185.0089 C413.7358,187.3109 414.0698,189.7709 414.0698,192.3939 C414.0698,195.2469 413.6788,197.8229 412.8968,200.1229 C412.1138,202.4239 410.9998,204.4019 409.5498,206.0579 C408.1008,207.7139 406.3518,208.9919 404.3048,209.8879 C402.2578,210.7859 399.9918,211.2339 397.5078,211.2339" id="Fill-23" fill="#231F20"></path>
                <path d="M425.2505,210.2679 L421.1095,210.2679 L421.1095,174.5199 L425.2505,174.5199 L425.2505,179.9029 L425.3885,179.9029 C426.4465,177.8319 427.9645,176.2569 429.9425,175.1749 C431.9215,174.0949 434.0845,173.5529 436.4305,173.5529 C438.0865,173.5529 439.4895,173.7379 440.6405,174.1059 C441.7895,174.4739 442.7685,174.9679 443.5735,175.5889 C444.3775,176.2099 445.0455,176.9349 445.5745,177.7629 C446.1035,178.5909 446.5515,179.4889 446.9205,180.4549 C448.1165,178.1089 449.7155,176.3719 451.7165,175.2449 C453.7185,174.1179 456.0065,173.5529 458.5835,173.5529 C461.0215,173.5529 462.9655,173.9559 464.4155,174.7609 C465.8645,175.5669 466.9795,176.6239 467.7625,177.9359 C468.5445,179.2469 469.0625,180.7539 469.3145,182.4559 C469.5665,184.1589 469.6945,185.9069 469.6945,187.7009 L469.6945,210.2679 L465.5545,210.2679 L465.5545,185.5619 C465.5545,182.9859 465.0125,180.9609 463.9325,179.4889 C462.8505,178.0169 460.8375,177.2809 457.8935,177.2809 C456.3755,177.2809 454.9135,177.6149 453.5115,178.2809 C452.1065,178.9489 450.8765,179.9719 449.8185,181.3519 C449.3585,181.9499 448.9795,182.6519 448.6805,183.4559 C448.3805,184.2619 448.1395,185.1019 447.9555,185.9759 C447.7715,186.8499 447.6455,187.7249 447.5755,188.5979 C447.5075,189.4719 447.4725,190.2779 447.4725,191.0129 L447.4725,210.2679 L443.3315,210.2679 L443.3315,185.5619 C443.3315,182.9859 442.7905,180.9609 441.7095,179.4889 C440.6285,178.0169 438.6145,177.2809 435.6715,177.2809 C434.1525,177.2809 432.6915,177.6149 431.2885,178.2809 C429.8855,178.9489 428.6545,179.9719 427.5975,181.3519 C427.1365,181.9499 426.7575,182.6519 426.4585,183.4559 C426.1585,184.2619 425.9165,185.1019 425.7335,185.9759 C425.5495,186.8499 425.4235,187.7249 425.3545,188.5979 C425.2845,189.4719 425.2505,190.2779 425.2505,191.0129 L425.2505,210.2679 Z" id="Fill-25" fill="#231F20"></path>
                <path d="M483.772,192.5315 C483.772,194.5565 484.048,196.4765 484.6,198.2945 C485.152,200.1125 485.946,201.6995 486.981,203.0555 C488.016,204.4135 489.281,205.4955 490.777,206.3005 C492.271,207.1045 493.962,207.5075 495.849,207.5075 C497.964,207.5075 499.817,207.0825 501.405,206.2305 C502.992,205.3805 504.292,204.2185 505.304,202.7455 C506.315,201.2735 507.052,199.5595 507.512,197.6035 C507.971,195.6485 508.156,193.5445 508.064,191.2895 C508.064,189.0355 507.753,187.0455 507.132,185.3195 C506.511,183.5935 505.649,182.1355 504.544,180.9375 C503.441,179.7415 502.152,178.8335 500.68,178.2125 C499.208,177.5915 497.597,177.2805 495.849,177.2805 C493.917,177.2805 492.192,177.6715 490.673,178.4535 C489.155,179.2365 487.889,180.3055 486.877,181.6625 C485.865,183.0195 485.094,184.6305 484.566,186.4935 C484.037,188.3565 483.772,190.3695 483.772,192.5315 L483.772,192.5315 Z M483.772,224.3455 L479.631,224.3455 L479.631,174.5195 L483.772,174.5195 L483.772,180.8005 L483.91,180.8005 C484.507,179.6505 485.279,178.6155 486.222,177.6945 C487.165,176.7745 488.2,176.0145 489.328,175.4165 C490.455,174.8195 491.616,174.3585 492.813,174.0365 C494.008,173.7155 495.182,173.5525 496.333,173.5525 C499.231,173.5525 501.692,174.0365 503.716,175.0025 C505.741,175.9695 507.409,177.2925 508.72,178.9705 C510.031,180.6505 510.986,182.6395 511.584,184.9405 C512.181,187.2415 512.481,189.7025 512.481,192.3245 C512.481,194.8085 512.159,197.2015 511.515,199.5025 C510.871,201.8025 509.893,203.8145 508.582,205.5405 C507.271,207.2655 505.615,208.6455 503.613,209.6805 C501.612,210.7165 499.253,211.2335 496.54,211.2335 C494.008,211.2335 491.582,210.6705 489.258,209.5435 C486.935,208.4165 485.106,206.7485 483.772,204.5395 L483.772,224.3455 Z" id="Fill-27" fill="#231F20"></path>
                <path d="M544.7095,191.4964 C542.9605,192.2324 541.1895,192.7164 539.3955,192.9454 C537.6015,193.1764 535.8075,193.3594 534.0125,193.4974 C530.8375,193.7284 528.3635,194.4414 526.5935,195.6374 C524.8215,196.8344 523.9375,198.6504 523.9375,201.0894 C523.9375,202.1934 524.1545,203.1484 524.5925,203.9534 C525.0285,204.7594 525.6045,205.4264 526.3175,205.9544 C527.0305,206.4834 527.8585,206.8754 528.8025,207.1284 C529.7445,207.3814 530.6995,207.5074 531.6655,207.5074 C533.3225,207.5074 534.9325,207.3004 536.4965,206.8864 C538.0605,206.4724 539.4525,205.8404 540.6725,204.9884 C541.8915,204.1384 542.8685,203.0564 543.6055,201.7444 C544.3405,200.4344 544.7095,198.8814 544.7095,197.0864 L544.7095,191.4964 Z M537.7385,189.4264 C538.5215,189.3344 539.4525,189.1964 540.5335,189.0124 C541.6145,188.8284 542.5015,188.5754 543.1905,188.2534 C543.8815,187.9324 544.3065,187.3904 544.4685,186.6314 C544.6285,185.8724 544.7095,185.1714 544.7095,184.5264 C544.7095,182.4104 544.0295,180.6734 542.6735,179.3154 C541.3155,177.9594 539.0265,177.2804 535.8075,177.2804 C534.3805,177.2804 533.0685,177.4074 531.8735,177.6594 C530.6765,177.9134 529.6305,178.3504 528.7325,178.9714 C527.8355,179.5924 527.0995,180.4204 526.5245,181.4554 C525.9485,182.4904 525.5685,183.7904 525.3865,185.3544 L521.1765,185.3544 C521.3135,183.2384 521.7975,181.4334 522.6255,179.9364 C523.4535,178.4424 524.5225,177.2234 525.8345,176.2794 C527.1465,175.3374 528.6635,174.6464 530.3895,174.2094 C532.1145,173.7724 533.9435,173.5534 535.8755,173.5534 C537.6705,173.5534 539.3605,173.7494 540.9475,174.1404 C542.5355,174.5314 543.9155,175.1524 545.0895,176.0034 C546.2625,176.8544 547.1825,177.9934 547.8495,179.4194 C548.5165,180.8464 548.8505,182.5944 548.8505,184.6644 L548.8505,204.1254 C548.8505,205.7364 549.1375,206.7604 549.7125,207.1964 C550.2875,207.6354 551.4485,207.5314 553.1975,206.8864 L553.1975,210.1304 C552.8755,210.2234 552.4035,210.3594 551.7825,210.5444 C551.1615,210.7264 550.5515,210.8194 549.9545,210.8194 C549.3095,210.8194 548.6885,210.7514 548.0915,210.6124 C547.4005,210.5194 546.8495,210.3024 546.4355,209.9574 C546.0215,209.6124 545.6865,209.1984 545.4345,208.7154 C545.1805,208.2314 545.0085,207.7034 544.9165,207.1284 C544.8235,206.5534 544.7785,205.9434 544.7785,205.2994 C543.0295,207.2314 541.0275,208.7044 538.7735,209.7164 C536.5205,210.7264 534.0815,211.2334 531.4585,211.2334 C529.8945,211.2334 528.3885,211.0264 526.9385,210.6124 C525.4895,210.1984 524.2125,209.5554 523.1085,208.6814 C522.0045,207.8074 521.1295,206.7374 520.4855,205.4724 C519.8415,204.2064 519.5205,202.7004 519.5205,200.9514 C519.5205,194.8784 523.6835,191.2894 532.0115,190.1844 L537.7385,189.4264 Z" id="Fill-29" fill="#231F20"></path>
                <path d="M563.8257,210.2679 L559.6847,210.2679 L559.6847,174.5199 L563.8257,174.5199 L563.8257,179.4889 C565.4817,177.7409 567.1957,176.3139 568.9677,175.2089 C570.7377,174.1059 572.8667,173.5529 575.3507,173.5529 C577.5587,173.5529 579.6057,173.9329 581.4937,174.6919 C583.3797,175.4519 584.9667,176.7749 586.2557,178.6609 C587.1287,179.9489 587.6457,181.2719 587.8077,182.6279 C587.9687,183.9859 588.0497,185.4009 588.0497,186.8719 L588.0497,210.2679 L583.9087,210.2679 L583.9087,186.9419 C583.9087,183.7219 583.1947,181.3069 581.7687,179.6959 C580.3427,178.0849 577.9727,177.2809 574.6607,177.2809 C573.3727,177.2809 572.1987,177.4759 571.1407,177.8669 C570.0827,178.2579 569.1287,178.7759 568.2767,179.4189 C567.4257,180.0649 566.7007,180.7999 566.1027,181.6279 C565.5057,182.4559 565.0447,183.3309 564.7227,184.2499 C564.3087,185.4009 564.0547,186.5049 563.9647,187.5629 C563.8717,188.6219 563.8257,189.7709 563.8257,191.0129 L563.8257,210.2679 Z" id="Fill-31" fill="#231F20"></path>
                <path d="M597.7798,219.93 C598.3328,220.022 598.8948,220.113 599.4708,220.205 C600.0458,220.297 600.6328,220.344 601.2308,220.344 C602.3808,220.344 603.3238,219.976 604.0598,219.242 C604.7958,218.505 605.4058,217.621 605.8888,216.588 C606.3728,215.554 606.7748,214.474 607.0968,213.35 C607.4188,212.223 607.7868,211.271 608.2008,210.49 L594.3298,174.52 L598.9538,174.52 L610.4098,205.23 L621.8658,174.52 L626.3508,174.52 L613.0318,209.784 C612.2038,212.038 611.4108,214.064 610.6508,215.858 C609.8918,217.653 609.0868,219.181 608.2358,220.448 C607.3838,221.712 606.4408,222.678 605.4058,223.346 C604.3708,224.012 603.1388,224.346 601.7148,224.346 C600.9768,224.346 600.2758,224.3 599.6088,224.208 C598.9418,224.116 598.3328,224.001 597.7798,223.864 L597.7798,219.93 Z" id="Fill-33" fill="#231F20"></path>
                <path d="M363.3787,166.4876 C361.7307,167.2406 359.8947,167.6196 357.8677,167.6196 C356.0157,167.6196 354.6287,167.3566 353.7047,166.8336 C352.7787,166.3076 352.3157,165.4946 352.3157,164.3946 C352.3157,163.6946 352.7657,162.6946 353.6657,161.3946 C354.8157,159.7456 355.3917,158.1436 355.3917,156.5936 C355.3917,154.7446 354.6787,153.1186 353.2547,151.7206 C351.8297,150.3186 350.0667,149.6186 347.9667,149.6186 C345.4657,149.6186 343.5657,150.4186 342.2657,152.0206 C340.9657,153.6206 340.3167,155.4936 340.3167,157.6456 C340.3167,161.0456 341.9787,164.0946 345.3047,166.7946 C348.6297,169.4956 352.8657,170.8456 358.0177,170.8456 C361.0427,170.8456 363.7777,170.2086 366.2257,168.9446 C365.7167,168.1426 364.5667,167.2756 363.3787,166.4876" id="Fill-35" fill="#231F20"></path>
                <g id="Group-39" transform="translate(178.375226, 0.000000)">
                    <mask id="mask-2" fill="white">
                        <use xlink:href="#path-1"></use>
                    </mask>
                    <g id="Clip-38"></g>
                    <path d="M30.2553736,64.2469 L30.2553736,34.7449 L53.3543736,49.4959 L30.2553736,64.2469 Z M16.3723736,62.1719 C16.4183736,62.1069 16.4623736,62.0399 16.5073736,61.9759 C16.7273736,61.6649 17.0413736,61.2659 16.3723736,62.1719 L16.3723736,62.1719 Z M15.9113736,62.7949 C15.9993736,62.6759 16.0863736,62.5559 16.1753736,62.4369 C16.1883736,62.4199 16.2023736,62.4029 16.2143736,62.3849 C16.1253736,62.5059 16.0273736,62.6389 15.9113736,62.7949 L15.9113736,62.7949 Z M84.1943736,102.5599 C83.7173736,102.9179 83.2173736,103.2369 82.7053736,103.4839 C83.2203736,103.2159 83.7193736,102.9049 84.1943736,102.5599 L84.1943736,102.5599 Z M85.9763736,101.0059 C85.9903736,100.9929 86.0043736,100.9799 86.0173736,100.9669 C85.9843736,100.9999 85.9483736,101.0329 85.9143736,101.0659 C85.9353736,101.0459 85.9563736,101.0259 85.9763736,101.0059 L85.9763736,101.0059 Z M182.908374,108.6729 C182.862374,108.7379 182.818374,108.8049 182.772374,108.8699 C182.553374,109.1799 182.239374,109.5799 182.908374,108.6729 L182.908374,108.6729 Z M183.369374,108.0499 C183.280374,108.1699 183.193374,108.2889 183.105374,108.4079 C183.091374,108.4259 183.077374,108.4439 183.064374,108.4619 C183.154374,108.3409 183.252374,108.2079 183.369374,108.0499 L183.369374,108.0499 Z M115.086374,68.2849 C115.562374,67.9279 116.062374,67.6089 116.574374,67.3619 C116.059374,67.6299 115.561374,67.9409 115.086374,68.2849 L115.086374,68.2849 Z M113.303374,69.8399 C113.290374,69.8529 113.276374,69.8659 113.262374,69.8789 C113.297374,69.8449 113.333374,69.8099 113.368374,69.7769 C113.347374,69.7979 113.325374,69.8189 113.303374,69.8399 L113.303374,69.8399 Z M182.154374,127.9449 C180.327374,127.2539 178.206374,126.6759 175.797374,126.2109 L175.797374,121.8509 C180.841374,118.5319 185.189374,114.1079 188.788374,109.2799 C192.512374,104.2839 195.521374,98.9169 197.438374,92.9729 C199.084374,87.8699 199.663374,82.3469 199.028374,77.0169 C198.320374,71.0689 195.987374,65.3769 192.755374,60.3629 C189.777374,55.7409 186.019374,51.5869 181.475374,48.4629 C177.537374,45.7559 173.033374,43.7759 168.361374,42.7599 C163.829374,41.7739 159.124374,41.7099 154.534374,42.3199 C144.211374,43.6919 134.802374,48.9319 127.258374,55.9579 C125.184374,57.8899 123.226374,59.9559 121.221374,61.9589 C119.791374,63.3879 118.361374,64.8159 116.929374,66.2429 C115.902374,67.2659 114.877374,68.2909 113.842374,69.3079 C113.646374,69.4899 113.453374,69.6749 113.269374,69.8659 C113.264374,69.8719 113.259374,69.8779 113.253374,69.8829 C112.860374,70.2989 112.453374,70.7059 112.103374,71.1559 C112.091374,71.1709 111.202374,72.3949 111.191374,72.4109 C110.545374,73.3909 110.177374,74.3339 110.127374,75.5069 C110.213374,76.0229 110.514374,76.3249 111.031374,76.4099 C111.579374,76.5349 112.543374,76.1849 112.945374,75.9959 C113.802374,75.5939 114.657374,75.0399 115.380374,74.4359 C115.679374,74.1849 116.368374,73.5559 116.652374,73.2859 C116.672374,73.2669 116.693374,73.2469 116.713374,73.2279 C116.848374,73.0989 116.979374,72.9679 117.112374,72.8379 C118.029374,71.9339 118.940374,71.0239 119.852374,70.1159 C122.133374,67.8429 124.411374,65.5669 126.689374,63.2909 C127.545374,62.4349 128.401374,61.5799 129.257374,60.7239 C129.578374,60.4029 129.897374,60.0809 130.224374,59.7669 C130.275374,59.7179 130.328374,59.6689 130.379374,59.6209 C130.858374,59.2069 131.340374,58.7979 131.838374,58.4059 C132.060374,58.2309 132.287374,58.0609 132.514374,57.8899 C132.559374,57.8589 132.604374,57.8269 132.649374,57.7959 C133.398374,57.2789 134.165374,56.7879 134.947374,56.3229 C135.143374,56.2059 135.340374,56.0909 135.538374,55.9769 C135.544374,55.9749 135.551374,55.9699 135.557374,55.9669 C135.611374,55.9379 135.660374,55.9119 135.694374,55.8939 C135.897374,55.7879 136.100374,55.6829 136.305374,55.5799 C137.812374,54.8199 139.366374,54.1589 140.952374,53.5839 C144.181374,52.5189 147.526374,51.8449 150.919374,51.6049 C156.713374,51.3469 162.506374,52.4009 167.786374,54.8189 C173.905374,57.8029 178.932374,62.4939 182.802374,68.0639 C184.112374,69.9489 185.275374,71.9309 186.278374,73.9959 C188.646374,79.1609 189.840374,84.7669 189.595374,90.4499 C189.374374,93.4579 188.769374,96.4169 187.833374,99.2829 C187.478374,100.2639 187.094374,101.2339 186.667374,102.1869 C186.423374,102.7299 186.168374,103.2679 185.901374,103.7999 C185.769374,104.0649 185.405374,104.7259 185.244374,105.0219 C184.775374,105.8269 184.296374,106.6239 183.782374,107.4019 C183.513374,107.8099 183.232374,108.2099 182.951374,108.6099 C182.806374,108.8029 182.661374,108.9959 182.513374,109.1859 C181.870374,110.0149 181.197374,110.8179 180.505374,111.6059 C180.381374,111.7389 180.256374,111.8719 180.130374,112.0029 C179.745374,112.4059 179.354374,112.8029 178.952374,113.1889 C178.588374,113.4969 178.215374,113.7909 177.837374,114.0799 C177.761374,114.1319 177.686374,114.1849 177.610374,114.2369 C177.156374,114.5419 176.693374,114.8349 176.224374,115.1159 C176.082374,115.1999 175.939374,115.2809 175.797374,115.3629 L175.797374,104.4539 L175.797374,99.2279 C175.797374,98.7939 175.296374,98.6589 174.962374,98.6789 C174.368374,98.7129 173.789374,99.0129 173.297374,99.3279 C169.529374,101.7339 165.761374,104.1409 161.992374,106.5469 C156.341374,110.1559 150.689374,113.7659 145.037374,117.3749 C143.793374,116.9649 142.573374,116.4839 141.381374,115.9389 C139.225374,114.8899 137.178374,113.6149 135.352374,112.0559 C133.736374,110.6759 132.281374,109.0889 130.781374,107.5849 C127.059374,103.8519 123.343374,100.1139 119.627374,96.3749 C110.169374,86.8579 100.716374,77.3369 91.2503736,67.8279 C85.7063736,62.2579 80.1583736,56.6919 74.6013736,51.1349 C74.4983736,51.0319 74.3723736,50.9679 74.2393736,50.9189 C73.4413736,50.1519 72.6213736,49.4099 71.7293736,48.7399 C69.9083736,47.3739 67.9233736,46.2919 65.8623736,45.3349 C65.0473736,44.9559 64.2133736,44.6189 63.3703736,44.3029 C63.3073736,44.2419 63.2303736,44.1919 63.1353736,44.1559 C59.4553736,41.8059 55.7763736,39.4559 52.0963736,37.1059 C46.1013736,33.2779 40.1073736,29.4489 34.1113736,25.6209 C32.7513736,24.7519 31.3903736,23.8829 30.0283736,23.0129 C28.6473736,22.1319 26.5843736,23.9389 25.6593736,24.7749 C24.3253736,25.9799 22.7313736,27.6919 22.7313736,29.6049 L22.7313736,35.1009 C19.7033736,34.3139 17.1413736,33.2919 15.0633736,32.0269 C9.56437365,28.7249 6.81437365,23.6999 6.81437365,16.9509 C6.81437365,12.9519 8.04037365,9.6639 10.4873736,7.0879 C12.9393736,4.5149 16.0393736,3.2259 19.7883736,3.2259 C21.6403736,3.2259 23.0263736,3.4889 23.9503736,4.0129 C24.8763736,4.5389 25.3393736,5.3509 25.3393736,6.4509 C25.3393736,7.1509 24.8893736,8.1509 23.9893736,9.4509 C22.8393736,11.0999 22.2643736,12.7019 22.2643736,14.2519 C22.2643736,16.1009 22.9763736,17.7269 24.4003736,19.1249 C25.8263736,20.5269 27.5883736,21.2259 29.6883736,21.2259 C32.1903736,21.2259 34.0893736,20.4269 35.3893736,18.8249 C36.6893736,17.2249 37.3393736,15.3509 37.3393736,13.1999 C37.3393736,9.7999 35.6763736,6.7509 32.3513736,4.0519 C29.0253736,1.3499 24.7893736,-0.0001 19.6383736,-0.0001 C14.3393736,-0.0001 9.92737365,1.9389 6.40137365,5.8139 C2.87637365,9.6899 1.11337365,14.3519 1.11337365,19.8009 C1.11337365,24.9519 2.62637365,29.6509 5.65137365,33.8999 C8.67737365,38.1519 12.5023736,41.1509 17.1253736,42.9009 C18.7603736,43.5189 20.6303736,44.0459 22.7313736,44.4829 L22.7313736,49.5109 C18.0073736,52.7669 13.9093736,56.9809 10.4923736,61.5659 C6.76837365,66.5609 3.75837365,71.9289 1.84137365,77.8719 C0.195373648,82.9759 -0.382626352,88.4989 0.251373648,93.8289 C0.959373648,99.7769 3.29237365,105.4679 6.52437365,110.4829 C9.50337365,115.1049 13.2603736,119.2589 17.8053736,122.3819 C21.7433736,125.0899 26.2473736,127.0699 30.9193736,128.0859 C35.4513736,129.0719 40.1563736,129.1349 44.7453736,128.5259 C55.0683736,127.1539 64.4783736,121.9139 72.0213736,114.8869 C74.0953736,112.9549 76.0533736,110.8899 78.0583736,108.8869 C79.4883736,107.4579 80.9193736,106.0299 82.3503736,104.6029 C83.3773736,103.5799 84.4033736,102.5539 85.4373736,101.5379 C85.6343736,101.3559 85.8273736,101.1699 86.0103736,100.9799 C86.0153736,100.9739 86.0213736,100.9679 86.0263736,100.9619 C86.4193736,100.5469 86.8263736,100.1399 87.1773736,99.6899 C87.1883736,99.6749 88.0783736,98.4509 88.0883736,98.4349 C88.7343736,97.4549 89.1033736,96.5119 89.1523736,95.3389 C89.0673736,94.8219 88.7653736,94.5209 88.2493736,94.4349 C87.7013736,94.3109 86.7373736,94.6609 86.3353736,94.8499 C85.4773736,95.2519 84.6223736,95.8059 83.9003736,96.4099 C83.6013736,96.6599 82.9113736,97.2889 82.6283736,97.5599 C82.6073736,97.5789 82.5863736,97.5989 82.5663736,97.6179 C82.4323736,97.7469 82.3003736,97.8769 82.1683736,98.0079 C81.2513736,98.9119 80.3393736,99.8209 79.4273736,100.7299 C77.1463736,103.0029 74.8683736,105.2779 72.5913736,107.5549 C71.7353736,108.4099 70.8793736,109.2659 70.0233736,110.1219 C69.7023736,110.4419 69.3823736,110.7639 69.0553736,111.0789 C69.0043736,111.1279 68.9523736,111.1759 68.9013736,111.2249 C68.4223736,111.6389 67.9393736,112.0479 67.4423736,112.4389 C67.2193736,112.6149 66.9923736,112.7849 66.7653736,112.9559 C66.7203736,112.9869 66.6763736,113.0189 66.6313736,113.0499 C65.8813736,113.5659 65.1153736,114.0579 64.3323736,114.5229 C64.1363736,114.6399 63.9393736,114.7549 63.7413736,114.8679 C63.7353736,114.8719 63.7283736,114.8749 63.7223736,114.8789 C63.6693736,114.9079 63.6203736,114.9339 63.5863736,114.9519 C63.3833736,115.0579 63.1793736,115.1629 62.9743736,115.2659 C61.4683736,116.0259 59.9143736,116.6869 58.3283736,117.2619 C55.0993736,118.3259 51.7533736,118.9999 48.3603736,119.2409 C42.5663736,119.4989 36.7743736,118.4449 31.4943736,116.0269 C25.3743736,113.0429 20.3473736,108.3519 16.4773736,102.7819 C15.1683736,100.8969 14.0053736,98.9149 13.0023736,96.8499 C10.6343736,91.6849 9.44037365,86.0789 9.68437365,80.3959 C9.90537365,77.3879 10.5113736,74.4289 11.4473736,71.5629 C11.8023736,70.5819 12.1853736,69.6109 12.6133736,68.6589 C12.8573736,68.1159 13.1123736,67.5779 13.3783736,67.0459 C13.5113736,66.7809 13.8753736,66.1189 14.0363736,65.8229 C14.5053736,65.0179 14.9843736,64.2209 15.4983736,63.4429 C15.7673736,63.0359 16.0473736,62.6359 16.3283736,62.2359 C16.4743736,62.0429 16.6193736,61.8499 16.7673736,61.6589 C17.4103736,60.8309 18.0833736,60.0279 18.7753736,59.2389 C18.8993736,59.1069 19.0233736,58.9739 19.1493736,58.8419 C19.5353736,58.4399 19.9263736,58.0429 20.3283736,57.6569 C20.6913736,57.3489 21.0653736,57.0539 21.4433736,56.7649 C21.5183736,56.7129 21.5933736,56.6599 21.6703736,56.6089 C22.0173736,56.3759 22.3743736,56.1559 22.7313736,55.9359 L22.7313736,67.0029 L22.7313736,72.2289 C22.7313736,72.7709 23.3563736,72.9399 23.7733736,72.9159 C24.5163736,72.8719 25.2393736,72.4969 25.8553736,72.1039 C29.6233736,69.6979 33.3913736,67.2909 37.1603736,64.8849 C43.0223736,61.1409 48.8853736,57.3969 54.7473736,53.6529 C55.8163736,54.0239 56.8703736,54.4359 57.8993736,54.9069 C60.0553736,55.9559 62.1023736,57.2309 63.9273736,58.7889 C65.5443736,60.1699 66.9993736,61.7569 68.4983736,63.2609 C72.2203736,66.9939 75.9373736,70.7319 79.6523736,74.4709 C89.1113736,83.9869 98.5643736,93.5089 108.029374,103.0179 C113.574374,108.5879 119.122374,114.1529 124.679374,119.7099 C124.782374,119.8139 124.907374,119.8779 125.041374,119.9269 C125.838374,120.6939 126.659374,121.4359 127.550374,122.1049 C129.371374,123.4719 131.357374,124.5539 133.418374,125.5109 C135.383374,126.4229 145.108374,131.2559 147.890374,133.0329 C153.885374,136.8609 159.880374,140.6889 165.875374,144.5179 C167.236374,145.3869 168.597374,146.2559 169.958374,147.1249 C171.063374,147.8309 172.714374,146.3849 173.454374,145.7159 C174.521374,144.7509 175.797374,143.3829 175.797374,141.8519 L175.797374,135.5489 C179.160374,136.3589 181.966374,137.4489 184.217374,138.8189 C189.716374,142.1209 192.465374,147.1459 192.465374,153.8939 C192.465374,157.3129 191.562374,160.2079 189.773374,162.5869 C190.366374,162.9999 190.974374,163.7529 192.292374,165.0989 C192.384374,165.1919 192.459374,165.2769 192.543374,165.3659 C192.653374,165.2509 192.770374,165.1509 192.878374,165.0309 C196.404374,161.1559 198.166374,156.4939 198.166374,151.0449 C198.166374,145.8939 196.654374,141.1949 193.628374,136.9449 C190.603374,132.6939 186.777374,129.6949 182.154374,127.9449 L182.154374,127.9449 Z" id="Fill-37" fill="#231F20" mask="url(#mask-2)"></path>
                </g>
                <path d="M366.8853,168.9433 C366.0653,167.7253 365.0933,166.7313 363.9683,165.9623 C362.9843,165.2893 361.8883,164.7423 360.6783,164.3223 L364.5533,161.2533 C365.7233,161.8093 366.8053,162.4823 367.7983,163.2713 C369.0293,164.2493 370.0993,165.3943 371.0093,166.7053 M371.0093,166.7053 C371.3403,167.1833 371.6503,167.6833 371.9393,168.2053 C373.0193,170.1613 373.7683,172.4273 374.1823,175.0023 L369.3513,175.0023 C368.7993,172.5853 367.9773,170.5653 366.8853,168.9433" id="Fill-40" fill="#231F20"></path>
            </g>
        </g>
    </g>
</svg>