<?xml version="1.0" encoding="UTF-8"?>
<svg width="399px" height="342px" viewBox="0 0 399 342" version="1.1" xmlns="http://www.w3.org/2000/svg" xmlns:xlink="http://www.w3.org/1999/xlink">
    <title>logo</title>
    <defs>
        <polygon id="path-1" points="0 0 398.560573 0 398.560573 341.6905 0 341.6905"></polygon>
    </defs>
    <g id="logo" stroke="none" stroke-width="1" fill="none" fill-rule="evenodd">
        <g id="Group-3" transform="translate(0.000000, 0.000000)">
            <mask id="mask-2" fill="white">
                <use xlink:href="#path-1"></use>
            </mask>
            <g id="Clip-2"></g>
            <path d="M60.511,128.493 L60.511,69.489 L106.708,98.991 L60.511,128.493 Z M32.746,124.343 C32.837,124.213 32.924,124.08 33.016,123.951 C33.455,123.33 34.082,122.53 32.746,124.343 L32.746,124.343 Z M31.822,125.59 C31.999,125.352 32.174,125.112 32.351,124.874 C32.377,124.839 32.404,124.805 32.43,124.77 C32.251,125.012 32.055,125.276 31.822,125.59 L31.822,125.59 Z M168.389,205.12 C167.435,205.835 166.436,206.473 165.411,206.968 C166.442,206.431 167.438,205.809 168.389,205.12 L168.389,205.12 Z M171.954,202.011 C171.98,201.984 172.009,201.96 172.035,201.933 C171.969,201.999 171.897,202.066 171.83,202.132 C171.871,202.091 171.913,202.051 171.954,202.011 L171.954,202.011 Z M365.816,217.346 C365.724,217.476 365.637,217.609 365.545,217.74 C365.106,218.36 364.478,219.16 365.816,217.346 L365.816,217.346 Z M366.738,216.1 C366.562,216.338 366.387,216.578 366.21,216.816 C366.183,216.852 366.155,216.887 366.128,216.923 C366.308,216.68 366.504,216.415 366.738,216.1 L366.738,216.1 Z M230.172,136.57 C231.126,135.855 232.125,135.217 233.149,134.722 C232.119,135.259 231.123,135.881 230.172,136.57 L230.172,136.57 Z M226.607,139.679 C226.58,139.706 226.552,139.731 226.525,139.757 C226.594,139.69 226.668,139.62 226.737,139.552 C226.694,139.595 226.65,139.637 226.607,139.679 L226.607,139.679 Z M364.309,255.889 C360.654,254.506 356.413,253.351 351.594,252.421 L351.594,243.701 C361.684,237.064 370.379,228.215 377.577,218.559 C385.024,208.568 391.043,197.833 394.877,185.946 C398.169,175.738 399.326,164.692 398.058,154.033 C396.642,142.137 391.975,130.754 385.512,120.725 C379.555,111.481 372.04,103.173 362.951,96.926 C355.074,91.511 346.066,87.551 336.723,85.518 C327.658,83.547 318.249,83.42 309.069,84.64 C288.423,87.383 269.604,97.864 254.517,111.916 C250.369,115.78 246.453,119.912 242.443,123.918 C239.583,126.774 236.723,129.631 233.859,132.484 C231.805,134.532 229.754,136.582 227.686,138.615 C227.292,138.98 226.907,139.35 226.54,139.732 C226.529,139.743 226.518,139.754 226.507,139.766 C225.722,140.597 224.908,141.411 224.206,142.312 C224.184,142.341 222.405,144.789 222.383,144.821 C221.092,146.782 220.355,148.667 220.255,151.013 C220.427,152.046 221.029,152.648 222.062,152.82 C223.158,153.069 225.086,152.369 225.89,151.992 C227.605,151.187 229.316,150.079 230.76,148.871 C231.358,148.37 232.737,147.112 233.304,146.572 C233.346,146.533 233.387,146.494 233.428,146.455 C233.696,146.198 233.959,145.936 234.224,145.675 C236.058,143.867 237.881,142.048 239.706,140.231 C244.268,135.686 248.823,131.134 253.378,126.582 C255.09,124.87 256.802,123.159 258.514,121.447 C259.156,120.806 259.795,120.162 260.449,119.533 C260.552,119.435 260.656,119.338 260.759,119.24 C261.716,118.413 262.681,117.596 263.676,116.812 C264.122,116.461 264.576,116.121 265.029,115.78 C265.119,115.717 265.208,115.653 265.299,115.59 C266.797,114.558 268.331,113.576 269.895,112.645 C270.288,112.412 270.682,112.181 271.078,111.954 C271.089,111.948 271.104,111.94 271.116,111.933 C271.223,111.876 271.32,111.824 271.388,111.787 C271.794,111.574 272.202,111.365 272.611,111.158 C275.625,109.639 278.732,108.317 281.904,107.167 C288.362,105.038 295.054,103.69 301.839,103.209 C313.428,102.693 325.013,104.8 335.573,109.637 C347.811,115.605 357.865,124.986 365.605,136.127 C368.225,139.897 370.551,143.861 372.556,147.99 C377.292,158.321 379.681,169.532 379.191,180.899 C378.749,186.916 377.538,192.834 375.667,198.564 C374.956,200.527 374.189,202.468 373.334,204.373 C372.847,205.459 372.336,206.534 371.804,207.599 C371.539,208.129 370.811,209.451 370.489,210.043 C369.551,211.653 368.593,213.248 367.564,214.804 C367.026,215.619 366.465,216.42 365.903,217.219 C365.613,217.605 365.322,217.991 365.026,218.372 C363.741,220.029 362.394,221.635 361.012,223.211 C360.763,223.477 360.514,223.743 360.262,224.006 C359.491,224.811 358.708,225.606 357.904,226.378 C357.178,226.993 356.43,227.582 355.674,228.16 C355.522,228.264 355.373,228.37 355.221,228.472 C354.312,229.083 353.387,229.669 352.448,230.231 C352.166,230.4 351.879,230.562 351.594,230.726 L351.594,208.908 L351.594,198.455 C351.594,197.587 350.593,197.317 349.925,197.357 C348.737,197.426 347.58,198.026 346.595,198.655 C339.058,203.468 331.522,208.281 323.985,213.094 C312.682,220.312 301.379,227.531 290.075,234.749 C287.586,233.929 285.147,232.967 282.763,231.878 C278.452,229.78 274.356,227.23 270.705,224.112 C267.473,221.351 264.562,218.177 261.563,215.169 C254.119,207.704 246.687,200.227 239.255,192.75 C220.339,173.716 201.432,154.673 182.501,135.654 C171.413,124.515 160.316,113.384 149.203,102.27 C148.996,102.064 148.745,101.935 148.479,101.837 C146.883,100.303 145.243,98.818 143.459,97.48 C139.817,94.747 135.847,92.583 131.724,90.669 C130.094,89.912 128.426,89.238 126.741,88.606 C126.616,88.484 126.461,88.384 126.271,88.311 C118.912,83.611 111.553,78.911 104.193,74.212 C92.204,66.555 80.214,58.898 68.224,51.241 C65.502,49.503 62.78,47.764 60.058,46.026 C57.295,44.262 53.168,47.877 51.318,49.549 C48.651,51.96 45.462,55.382 45.462,59.21 L45.462,70.202 C39.407,68.628 34.283,66.584 30.126,64.053 C19.128,57.45 13.629,47.399 13.629,33.902 C13.629,25.903 16.081,19.326 20.976,14.175 C25.879,9.028 32.078,6.451 39.577,6.451 C43.28,6.451 46.054,6.977 47.901,8.024 C49.753,9.076 50.679,10.702 50.679,12.901 C50.679,14.301 49.779,16.301 47.98,18.9 C45.68,22.2 44.528,25.403 44.528,28.503 C44.528,32.202 45.954,35.454 48.801,38.249 C51.653,41.053 55.178,42.452 59.377,42.452 C64.381,42.452 68.18,40.853 70.779,37.649 C73.379,34.45 74.679,30.702 74.679,26.399 C74.679,19.6 71.353,13.502 64.702,8.102 C58.051,2.699 49.579,0 39.277,0 C28.679,0 19.854,3.877 12.803,11.628 C5.752,19.378 2.227,28.703 2.227,39.601 C2.227,49.903 5.252,59.302 11.304,67.8 C17.355,76.303 25.005,82.302 34.251,85.801 C37.521,87.037 41.261,88.091 45.462,88.965 L45.462,99.021 C36.015,105.533 27.819,113.962 20.984,123.131 C13.537,133.122 7.518,143.858 3.684,155.744 C0.391,165.952 -0.766,176.998 0.503,187.657 C1.919,199.553 6.586,210.936 13.049,220.965 C19.006,230.21 26.521,238.517 35.61,244.764 C43.487,250.179 52.494,254.139 61.838,256.172 C70.903,258.143 80.312,258.27 89.491,257.05 C110.137,254.307 128.957,243.826 144.044,229.774 C148.191,225.91 152.107,221.778 156.117,217.773 C158.978,214.916 161.838,212.059 164.701,209.206 C166.755,207.159 168.807,205.108 170.875,203.075 C171.269,202.711 171.654,202.34 172.021,201.959 C172.032,201.947 172.043,201.936 172.054,201.924 C172.839,201.093 173.653,200.279 174.355,199.378 C174.377,199.349 176.156,196.901 176.177,196.869 C177.469,194.908 178.206,193.023 178.306,190.678 C178.134,189.644 177.532,189.042 176.499,188.87 C175.402,188.621 173.474,189.321 172.67,189.698 C170.956,190.503 169.245,191.611 167.801,192.819 C167.202,193.32 165.824,194.578 165.256,195.118 C165.215,195.158 165.174,195.196 165.133,195.235 C164.865,195.492 164.601,195.754 164.337,196.015 C162.502,197.823 160.68,199.642 158.855,201.46 C154.293,206.004 149.737,210.556 145.182,215.108 C143.47,216.82 141.758,218.531 140.047,220.243 C139.405,220.884 138.766,221.528 138.112,222.157 C138.009,222.255 137.905,222.352 137.802,222.45 C136.845,223.277 135.88,224.095 134.885,224.878 C134.439,225.229 133.985,225.569 133.532,225.911 C133.442,225.973 133.353,226.037 133.262,226.1 C131.763,227.132 130.23,228.115 128.666,229.045 C128.273,229.278 127.879,229.509 127.483,229.736 C127.472,229.742 127.458,229.75 127.445,229.757 C127.338,229.815 127.241,229.867 127.172,229.903 C126.767,230.116 126.359,230.325 125.95,230.532 C122.936,232.052 119.829,233.373 116.656,234.523 C110.198,236.652 103.506,238 96.722,238.481 C85.133,238.997 73.548,236.89 62.988,232.054 C50.75,226.085 40.695,216.704 32.955,205.563 C30.336,201.793 28.01,197.829 26.005,193.7 C21.269,183.369 18.88,172.158 19.369,160.791 C19.812,154.774 21.023,148.856 22.895,143.126 C23.605,141.163 24.372,139.222 25.227,137.317 C25.714,136.232 26.225,135.156 26.757,134.091 C27.022,133.56 27.751,132.236 28.073,131.645 C29.01,130.036 29.968,128.441 30.996,126.886 C31.535,126.071 32.096,125.27 32.658,124.471 C32.948,124.085 33.239,123.699 33.535,123.318 C34.82,121.661 36.167,120.054 37.55,118.478 C37.799,118.212 38.047,117.947 38.299,117.684 C39.07,116.879 39.853,116.085 40.657,115.312 C41.383,114.697 42.13,114.108 42.886,113.53 C43.038,113.426 43.188,113.32 43.34,113.218 C44.035,112.751 44.749,112.311 45.462,111.872 L45.462,134.005 L45.462,144.458 C45.462,145.542 46.713,145.879 47.548,145.831 C49.033,145.744 50.48,144.994 51.711,144.207 C59.247,139.395 66.784,134.582 74.32,129.769 C86.045,122.281 97.77,114.794 109.495,107.306 C111.633,108.047 113.74,108.872 115.799,109.813 C120.11,111.911 124.205,114.461 127.855,117.578 C131.088,120.339 133.998,123.513 136.998,126.521 C144.441,133.986 151.874,141.463 159.306,148.941 C178.222,167.974 197.128,187.017 216.06,206.036 C227.148,217.175 238.245,228.306 249.358,239.42 C249.564,239.627 249.815,239.755 250.082,239.853 C251.678,241.387 253.318,242.872 255.101,244.21 C258.744,246.943 262.714,249.107 266.837,251.021 C270.767,252.846 290.217,262.511 295.781,266.064 C307.771,273.721 319.761,281.378 331.751,289.035 C334.473,290.773 337.195,292.511 339.917,294.25 C342.127,295.661 345.429,292.769 346.909,291.431 C349.043,289.502 351.594,286.765 351.594,283.703 L351.594,271.098 C358.32,272.717 363.934,274.897 368.435,277.637 C379.433,284.24 384.932,294.291 384.932,307.788 C384.932,315.787 382.48,322.364 377.585,327.515 C372.682,332.662 366.483,335.24 358.984,335.24 C355.28,335.24 352.507,334.713 350.66,333.666 C348.808,332.614 347.882,330.988 347.882,328.789 C347.882,327.389 348.782,325.389 350.581,322.79 C352.881,319.49 354.033,316.287 354.033,313.187 C354.033,309.488 352.607,306.236 349.76,303.441 C346.908,300.637 343.383,299.238 339.184,299.238 C334.18,299.238 330.381,300.837 327.781,304.041 C325.182,307.24 323.882,310.988 323.882,315.291 C323.882,322.09 327.208,328.189 333.858,333.588 C340.509,338.991 348.982,341.691 359.284,341.691 C369.882,341.691 378.707,337.813 385.757,330.062 C392.808,322.312 396.334,312.987 396.334,302.089 C396.334,291.787 393.308,282.389 387.257,273.89 C381.206,265.387 373.555,259.389 364.309,255.889 L364.309,255.889 Z" id="Fill-1" fill="#231F20" mask="url(#mask-2)"></path>
        </g>
    </g>
</svg>